<svg width="6" height="11" viewBox="0 0 6 11" fill="none" xmlns="http://www.w3.org/2000/svg">
<path d="M1.32787 11V6.72254H0V4.40344H1.47541V3.73347C1.47541 2.39355 1.47541 0.79594 2.95082 0.280583C3.29508 0.177512 3.59016 0.125976 3.93443 0.0744404C4.27869 0.0229047 4.62295 0.0229047 4.96721 0.0229047C5.01639 0.0229047 6 -0.0286309 6 0.0229047V2.39355C6 2.39355 5.16393 2.39355 5.06557 2.39355C4.72131 2.39355 4.32787 2.44508 4.13115 2.80583C3.98361 3.06351 3.93442 3.42426 3.88524 3.73347C3.88524 3.78501 3.88525 4.40344 3.93443 4.40344H5.7541V6.77408H3.93443V10.9485H1.32787V11Z" fill="white"/>
</svg>
