<svg width="29" height="40" viewBox="0 0 29 40" fill="none" xmlns="http://www.w3.org/2000/svg">
<path d="M14.8589 26.4103C17.151 26.4103 19.3967 26.9961 20.9956 27.9796V27.9806L21.2593 28.1515C22.5395 29.0265 23.3022 30.1492 23.3022 31.2716V34.4562C23.3022 35.5785 22.5394 36.7004 21.2593 37.5753L20.9956 37.7472C19.3701 38.7591 17.1502 39.3175 14.8589 39.3175C12.7099 39.3175 10.6024 38.8017 9.02979 37.9269L8.72217 37.7472C7.28402 36.8501 6.41553 35.6535 6.41553 34.4562V31.2716C6.41553 30.0743 7.28402 28.8776 8.72217 27.9806L9.03369 27.796C10.6254 26.9009 12.7107 26.4103 14.8589 26.4103ZM7.67334 34.4835C7.67334 34.8064 7.8185 35.168 8.10498 35.5353C8.39083 35.9017 8.81138 36.2665 9.34424 36.5929L9.61768 36.7521C11.0163 37.5245 12.8882 37.9591 14.8335 37.9591C16.9089 37.959 18.9249 37.4645 20.3208 36.5939L20.3218 36.5929L20.5161 36.4689C20.9576 36.1754 21.3109 35.856 21.561 35.5353C21.8475 35.168 21.9927 34.8064 21.9927 34.4835V33.8136C21.6919 34.0934 21.3466 34.3427 20.9722 34.588L20.9702 34.59C19.3448 35.6018 17.1247 36.1602 14.8335 36.1603C12.5414 36.1603 10.2957 35.5735 8.69678 34.59H8.6958C8.2959 34.3417 7.96447 34.0746 7.67334 33.8058V34.4835ZM14.8335 27.796C12.7579 27.796 10.7413 28.2906 9.34521 29.1613L9.34424 29.1622C8.81138 29.4887 8.39083 29.8534 8.10498 30.2198C7.81851 30.5872 7.67334 30.9487 7.67334 31.2716C7.67346 31.5945 7.81847 31.9561 8.10498 32.3234C8.39082 32.6897 8.81151 33.0536 9.34424 33.38L9.61768 33.5392C11.0163 34.3116 12.8881 34.7462 14.8335 34.7462C16.9089 34.7461 18.9249 34.2516 20.3208 33.381L20.3218 33.38L20.5161 33.256C20.9574 32.9626 21.3109 32.6439 21.561 32.3234C21.8475 31.9561 21.9926 31.5945 21.9927 31.2716C21.9927 30.9487 21.8475 30.5872 21.561 30.2198C21.2752 29.8534 20.8546 29.4887 20.3218 29.1622L20.3208 29.1613C18.9248 28.2906 16.9345 27.7961 14.8335 27.796Z" fill="white" stroke="white" stroke-width="0.25"/>
<path d="M14.7637 0.911133L15.7461 1.88086L16.25 2.39648C18.6631 4.95972 19.4559 7.24799 19.4189 9.3418C19.3845 11.2877 18.6327 13.0505 17.8408 14.6826L17.501 15.374C17.0221 16.3453 16.561 17.2786 16.2607 18.1963C15.961 19.1125 15.8245 20.0044 15.9873 20.8906L16.0312 21.0771C16.2907 21.9808 17.1174 22.3841 17.8408 22.3115H17.8418L17.9912 22.291C18.3396 22.2256 18.6861 22.0473 18.957 21.7314C19.2663 21.3708 19.4854 20.8197 19.4854 20.0264C19.4854 17.9828 20.0022 16.3915 21.1338 15.1748C22.2624 13.9613 23.9887 13.1365 26.377 12.5938L26.3779 12.5928L27.7725 12.2881L28.0977 12.2178L27.9004 12.4844L27.0215 13.6758C25.7706 15.3763 25.2804 16.4383 25.2246 17.3447C25.169 18.2502 25.5439 19.022 26.1025 20.1641L26.3613 20.6816C26.9749 21.9322 27.6542 23.5084 28.1543 25.8721L28.2471 26.3584C28.6573 28.7814 28.2916 31.073 27.2109 33.0215L27.1455 33.1396L27.0332 33.0645L26.1543 32.4834L26.0586 32.4199L26.1143 32.3184C27.1057 30.5195 27.3875 28.446 26.9023 26.1738V26.1729C26.5173 24.2947 25.9738 22.9279 25.4648 21.8252L24.9746 20.8018C24.4203 19.6547 24.0012 18.711 23.958 17.6846C23.9176 16.7228 24.2092 15.7043 24.9873 14.3828C23.5183 14.8904 22.488 15.5394 21.8145 16.3994C21.0944 17.319 20.7686 18.4933 20.7686 20.0264C20.7686 22.3008 19.3819 23.5234 17.9697 23.6689L17.9688 23.668C16.6184 23.812 15.0834 22.9715 14.7344 21.1582V21.1572C14.3123 18.8939 15.3695 16.7498 16.3467 14.7373V14.7363L16.6592 14.1045C17.3781 12.6333 18.0049 11.1911 18.1133 9.65625C18.2315 7.98168 17.7308 6.18348 16.0137 4.11133C15.9773 10.0882 12.9988 13.2824 10.79 15.6504L10.791 15.6514C10.2426 16.2673 9.70903 16.8112 9.32617 17.3311L9.3252 17.332L8.57617 18.3291L8.38965 18.5771L8.35254 18.2695L8.19727 16.9961L8.12695 16.5615C7.93136 15.5665 7.51538 14.7067 6.8584 13.9609C6.16417 13.1729 5.19506 12.5096 3.92188 11.9473C4.63069 13.2932 5.01634 14.3452 5.00098 15.6006C4.98656 16.7774 4.62159 18.1214 3.87305 20.0439L3.52832 20.9053C1.7032 25.37 1.71377 29.2846 3.54492 32.2295L3.60645 32.3291L3.51172 32.3975L2.65918 33.0068L2.55078 33.084L2.48047 32.9717C1.0122 30.6105 -0.179825 26.5242 2.34082 20.3672H2.3418L2.70508 19.4619C3.48442 17.4659 3.78916 16.2488 3.70117 15.1729C3.62575 14.251 3.26156 13.4242 2.62988 12.2881L1.91016 11.0332L1.18652 9.78711L1.02441 9.50781L1.33203 9.60449L2.64941 10.0205H2.65039L3.32422 10.2529C6.50675 11.4151 8.41024 13.1059 9.1748 15.4844C9.395 15.2332 9.63035 14.9777 9.88281 14.707L10.8008 13.708C11.7277 12.6703 12.6581 11.5014 13.3828 10.0557C14.3473 8.1313 14.9499 5.7104 14.6807 2.45117L14.5518 1.01074L14.5215 0.670898L14.7637 0.911133Z" fill="white" stroke="white" stroke-width="0.25"/>
</svg>
