<svg width="36" height="36" viewBox="0 0 36 36" fill="none" xmlns="http://www.w3.org/2000/svg">
<path d="M33.7383 14.6538L18.3375 5.85134L2.93664 14.6538L0.856934 10.4875L18.3375 0.607178L35.818 10.4875L33.7383 14.6538ZM18.3375 4.20002L33.1303 12.6501L33.9249 11.0679L18.3375 2.2585L2.75008 11.0679L3.54466 12.6501L18.3375 4.20002Z" fill="white"/>
<path d="M34.077 33.7786H2.59131V35.2157H34.077V33.7786Z" fill="white"/>
<path d="M8.9958 7.18478H7.55176V1.42932H12.5886V5.02907H11.1515V2.87337H8.9958V7.18478Z" fill="white"/>
<path d="M22.0126 21.7424C19.7118 21.7424 17.8394 19.87 17.8394 17.5692C17.8394 15.2684 19.7118 13.396 22.0126 13.396C24.3134 13.396 26.1858 15.2684 26.1858 17.5692C26.1858 19.87 24.3134 21.7424 22.0126 21.7424ZM22.0126 14.8262C20.4994 14.8262 19.2765 16.0561 19.2765 17.5623C19.2765 19.0685 20.5063 20.2984 22.0126 20.2984C23.5257 20.2984 24.7487 19.0685 24.7487 17.5623C24.7487 16.0561 23.5188 14.8262 22.0126 14.8262Z" fill="white"/>
<path d="M28.9222 33.0597C26.6214 33.0597 24.749 31.1873 24.749 28.8865C24.749 26.5857 26.6214 24.7133 28.9222 24.7133C31.223 24.7133 33.0955 26.5857 33.0955 28.8865C33.1024 31.1873 31.23 33.0597 28.9222 33.0597ZM28.9222 26.1435C27.4091 26.1435 26.1862 27.3733 26.1862 28.8796C26.1862 30.3927 27.416 31.6157 28.9222 31.6157C30.4354 31.6157 31.6583 30.3858 31.6583 28.8796C31.6652 27.3733 30.4354 26.1435 28.9222 26.1435Z" fill="white"/>
<path d="M32.226 15.9571L18.1958 28.8607L19.1686 29.9185L33.1988 17.0149L32.226 15.9571Z" fill="white"/>
<path d="M5.39612 12.9331H3.95898V34.4971H5.39612V12.9331Z" fill="white"/>
<path d="M15.4627 34.4973H14.0256V20.119H8.27705V34.4973H6.83301V18.6819H15.4627V34.4973Z" fill="white"/>
<path d="M10.4337 25.8743H8.99658V27.3114H10.4337V25.8743Z" fill="white"/>
</svg>
