<svg width="13" height="13" viewBox="0 0 13 13" fill="none" xmlns="http://www.w3.org/2000/svg">
<path d="M9.37421 0.266846H3.7281C1.82626 0.266846 0.281006 1.8121 0.281006 3.71394V9.36005C0.281006 11.2619 1.82626 12.8071 3.7281 12.8071H9.37421C11.2761 12.8071 12.8213 11.2619 12.8213 9.36005V3.77337C12.8807 1.87153 11.3355 0.266846 9.37421 0.266846ZM11.7515 9.41948C11.7515 10.727 10.6817 11.7968 9.37421 11.7968H3.7281C2.42058 11.7968 1.3508 10.727 1.3508 9.41948V3.77337C1.3508 2.46586 2.42058 1.39607 3.7281 1.39607H9.37421C10.6817 1.39607 11.7515 2.46586 11.7515 3.77337V9.41948Z" fill="white"/>
<path d="M6.58081 3.35742C4.79783 3.35742 3.31201 4.78381 3.31201 6.62622C3.31201 8.4092 4.7384 9.89502 6.58081 9.89502C8.36379 9.89502 9.84961 8.46863 9.84961 6.62622C9.84961 4.78381 8.36379 3.35742 6.58081 3.35742ZM6.58081 8.70636C5.39216 8.70636 4.44123 7.75544 4.44123 6.56679C4.44123 5.37813 5.39216 4.42721 6.58081 4.42721C7.76946 4.42721 8.72038 5.37813 8.72038 6.56679C8.72038 7.75544 7.76946 8.70636 6.58081 8.70636Z" fill="white"/>
<path d="M9.96854 2.40649C9.73081 2.40649 9.55251 2.46593 9.37421 2.64422C9.19591 2.82252 9.13647 3.00082 9.13647 3.23855C9.13647 3.47628 9.19591 3.65458 9.37421 3.83288C9.55251 4.01118 9.73081 4.07061 9.96854 4.07061C10.2063 4.07061 10.3846 4.01118 10.5629 3.83288C10.7412 3.65458 10.8006 3.47628 10.8006 3.23855C10.8006 3.00082 10.7412 2.82252 10.5629 2.64422C10.3846 2.46593 10.1468 2.40649 9.96854 2.40649Z" fill="white"/>
</svg>
