<svg width="32" height="35" viewBox="0 0 32 35" fill="none" xmlns="http://www.w3.org/2000/svg">
<g clip-path="url(#clip0_41_672)">
<path d="M15.1904 14.9587L20.2779 33.1619L23.7648 28.01L28.7379 34.1922L31.0244 32.3032L26.1085 26.1783L31.8247 23.8313L15.1904 14.9587Z" fill="white"/>
<path d="M15.8763 29.441C15.0188 29.441 13.9899 28.0099 13.2468 25.7202C12.8467 24.5181 12.5609 23.2015 12.3322 21.7132L12.275 21.3698H15.7048L15.2475 19.6525H12.1036V19.3663C11.9892 18.1642 11.9321 16.8476 11.9321 15.5883C11.9321 14.329 11.9892 13.0696 12.1036 11.8103V11.5241H19.7633V11.8103C19.8777 13.0124 19.9348 14.329 19.9348 15.5883V15.8173L21.5354 16.7331C21.5354 16.3897 21.5354 15.989 21.5354 15.6455C21.5354 14.3862 21.4782 13.1269 21.3639 11.9248V11.6386H29.0237L29.0808 11.8675C29.4238 13.1269 29.5953 14.3862 29.5953 15.7028C29.5953 17.0194 29.4238 18.2787 29.0808 19.538L29.0237 19.767H27.023L30.2241 21.4843C30.2812 21.3125 30.3384 21.1408 30.3955 20.9691C30.3955 20.9118 30.4527 20.8546 30.4527 20.8546C31.0243 19.1946 31.3101 17.4773 31.3101 15.76C31.3101 14.0427 31.0243 12.3255 30.4527 10.6654C30.4527 10.6082 30.4527 10.551 30.3955 10.551C28.2234 4.25427 22.3356 0.132812 15.8763 0.132812C9.35976 0.132812 3.52919 4.25427 1.29985 10.3792C1.29985 10.4365 1.24269 10.4365 1.24269 10.4937C0.671066 12.1537 0.385254 13.871 0.385254 15.6455C0.385254 17.3628 0.671066 19.0801 1.24269 20.7401C1.24269 20.7974 1.24269 20.8546 1.29985 20.8546C3.52919 26.9796 9.35976 31.101 15.8763 31.101C16.6766 31.101 17.4768 31.0438 18.3343 30.9293L17.534 28.0099C16.9624 28.9258 16.3336 29.441 15.8763 29.441ZM19.4775 2.30803C23.2502 3.33839 26.4513 5.97155 28.2234 9.46334L28.452 9.86404H21.1924L21.1352 9.63507C20.7351 6.77294 19.992 4.36876 19.1345 2.70873L18.7916 2.1363L19.4775 2.30803ZM15.8763 1.79285C16.7337 1.79285 17.7626 3.22391 18.5058 5.51361C18.9059 6.7157 19.1917 8.03228 19.4204 9.52059L19.4775 9.86404H12.2179L12.275 9.52059C12.5037 8.03228 12.8467 6.65846 13.1896 5.51361C13.9899 3.22391 14.9617 1.79285 15.8763 1.79285ZM3.52919 9.46334C5.30123 5.91431 8.44516 3.33839 12.275 2.30803L12.9038 2.1363L12.5609 2.70873C11.6463 4.36876 10.9603 6.77294 10.5602 9.63507L10.503 9.86404H3.30054L3.52919 9.46334ZM2.61459 19.4235C2.27162 18.1642 2.10013 16.9049 2.10013 15.5883C2.10013 14.2717 2.27162 13.0124 2.61459 11.753L2.67175 11.5813H10.3315V11.8675C10.2172 13.0696 10.16 14.329 10.16 15.5883C10.16 16.8476 10.2172 18.107 10.3315 19.3091V19.5953H2.67175L2.61459 19.4235ZM12.275 28.9258C8.44516 27.8954 5.30123 25.3195 3.52919 21.7705L3.30054 21.3698H10.503L10.5602 21.5988C10.9603 24.4609 11.7034 26.8651 12.5609 28.5251L12.9038 29.0975L12.275 28.9258Z" fill="white"/>
</g>
<defs>
<clipPath id="clip0_41_672">
<rect width="31.4394" height="34.0593" fill="white" transform="translate(0.385254 0.132812)"/>
</clipPath>
</defs>
</svg>
