<svg width="12" height="12" viewBox="0 0 12 12" fill="none" xmlns="http://www.w3.org/2000/svg">
<path d="M11.9999 7.57695V11.9155H9.5037V7.87411C9.5037 6.86375 9.14711 6.15056 8.25562 6.15056C7.54243 6.15056 7.1264 6.62602 6.94811 7.04205C6.88867 7.22035 6.88867 7.39865 6.88867 7.63638V11.8561H4.3925C4.3925 11.8561 4.45193 5.02134 4.3925 4.30815H6.88867V5.37794C7.24527 4.84304 7.83959 4.12985 9.14711 4.12985C10.7518 4.18928 11.9999 5.25907 11.9999 7.57695ZM1.77746 0.742188C0.945397 0.742188 0.351074 1.27708 0.351074 2.04971C0.351074 2.7629 0.88597 3.35723 1.71803 3.35723C2.60952 3.35723 3.14441 2.7629 3.14441 2.04971C3.14441 1.27708 2.60951 0.742188 1.77746 0.742188ZM0.469938 11.8561H2.96611V4.36758H0.469938V11.8561Z" fill="white"/>
</svg>
