<svg width="38" height="38" viewBox="0 0 38 38" fill="none" xmlns="http://www.w3.org/2000/svg">
<path d="M19.3976 31.4752L19.1734 31.0282H19.1734L19.3976 31.4752ZM18.6031 31.4752L18.8272 31.0282L18.6031 31.4752ZM29.5837 17.4167C29.5837 21.3448 27.5075 24.4902 25.1341 26.8024C22.7622 29.1132 20.1415 30.5427 19.1734 31.0282L19.6217 31.9221C20.6334 31.4148 23.3558 29.931 25.8319 27.5187C28.3066 25.1078 30.5837 21.7204 30.5837 17.4167H29.5837ZM19.0003 6.83333C24.8453 6.83333 29.5837 11.5716 29.5837 17.4167H30.5837C30.5837 11.0194 25.3976 5.83333 19.0003 5.83333V6.83333ZM8.41699 17.4167C8.41699 11.5716 13.1553 6.83333 19.0003 6.83333V5.83333C12.603 5.83333 7.41699 11.0194 7.41699 17.4167H8.41699ZM18.8272 31.0282C17.8591 30.5427 15.2385 29.1132 12.8665 26.8024C10.4931 24.4902 8.41699 21.3448 8.41699 17.4167H7.41699C7.41699 21.7204 9.69403 25.1078 12.1687 27.5187C14.6449 29.931 17.3673 31.4148 18.379 31.9221L18.8272 31.0282ZM19.1734 31.0282C19.0599 31.0852 18.9408 31.0852 18.8272 31.0282L18.379 31.9221C18.7746 32.1205 19.226 32.1205 19.6217 31.9221L19.1734 31.0282ZM23.2503 17.4167C23.2503 19.7639 21.3475 21.6667 19.0003 21.6667V22.6667C21.8998 22.6667 24.2503 20.3162 24.2503 17.4167H23.2503ZM19.0003 13.1667C21.3475 13.1667 23.2503 15.0695 23.2503 17.4167H24.2503C24.2503 14.5172 21.8998 12.1667 19.0003 12.1667V13.1667ZM14.7503 17.4167C14.7503 15.0695 16.6531 13.1667 19.0003 13.1667V12.1667C16.1008 12.1667 13.7503 14.5172 13.7503 17.4167H14.7503ZM19.0003 21.6667C16.6531 21.6667 14.7503 19.7639 14.7503 17.4167H13.7503C13.7503 20.3162 16.1008 22.6667 19.0003 22.6667V21.6667Z" fill="white"/>
</svg>
