<svg width="46" height="44" viewBox="0 0 46 44" fill="none" xmlns="http://www.w3.org/2000/svg">
<path d="M28.4074 5.89083C23.2581 5.80783 18.858 9.08052 17.2953 13.6424C17.1136 14.1735 17.4882 14.7296 18.0529 14.7711C18.4498 14.7987 18.8104 14.558 18.939 14.1873C20.2781 10.2867 24.0632 7.49259 28.4773 7.60878C33.8028 7.7471 38.0659 12.1374 38.0044 17.4075C37.9737 20.0854 36.8387 22.506 35.03 24.2433C34.6973 24.5642 34.675 25.0871 34.9853 25.4301C35.3152 25.7953 35.8826 25.8119 36.2377 25.4716C38.3986 23.394 39.7432 20.4893 39.7377 17.2802C39.7293 11.0862 34.6638 5.99318 28.4074 5.89083Z" fill="white"/>
<path d="M20.2416 36.3296V41.9897H15.9085V36.3296H14.1753V42.0202C14.1753 42.9497 14.9385 43.7049 15.8778 43.7049H20.2723C21.2116 43.7049 21.9748 42.9497 21.9748 42.0202V36.3296H20.2416Z" fill="white"/>
<path d="M33.059 28.3404L32.7599 27.5381L32.4579 26.7303L29.1117 17.7671C28.9859 17.4323 28.6616 17.2083 28.2982 17.2083H7.85185C7.48843 17.2083 7.16415 17.4323 7.03835 17.7671L0.538785 35.1735C0.440942 35.4363 0.477283 35.7295 0.639423 35.9619C0.801563 36.1915 1.06714 36.3299 1.34948 36.3299H14.1725H15.9057H20.2388H21.972H34.795C35.0773 36.3299 35.3457 36.1915 35.5051 35.9619C35.6672 35.7323 35.7035 35.4363 35.6057 35.1735L33.059 28.3404ZM24.6054 35.9758C24.5243 35.9868 24.446 35.9868 24.3677 35.9785C23.9931 35.9315 23.68 35.6548 23.6213 35.2841L23.5179 34.6147H12.6294L12.5259 35.2841C12.4672 35.6576 12.1569 35.9343 11.7795 35.9785C11.7013 35.9868 11.623 35.9868 11.5419 35.9758C11.0695 35.9094 10.7396 35.4944 10.8095 35.0462L10.8766 34.6147H2.59628L4.02199 30.7915C3.59148 30.7417 3.25602 30.3793 3.25602 29.9394C3.25602 29.4663 3.6446 29.0818 4.12263 29.0818H4.65937L6.41216 24.3955C6.08788 24.271 5.85864 23.9611 5.85864 23.596C5.85864 23.1229 6.24722 22.7384 6.72525 22.7384H7.02996L8.45568 18.9234H13.2975L13.4009 18.254C13.4708 17.8058 13.9097 17.496 14.3822 17.5596C14.8546 17.626 15.1845 18.0409 15.1146 18.4891L15.0475 18.9207H21.1026L21.0355 18.4891C20.9656 18.0409 21.2955 17.6232 21.7679 17.5596C22.2403 17.4932 22.682 17.8058 22.7491 18.254L22.8526 18.9234H27.6944L29.1201 22.7384H29.7715C30.2495 22.7384 30.6381 23.1229 30.6381 23.596C30.6381 24.069 30.2495 24.4535 29.7715 24.4535H29.7603L30.8086 27.2587L31.1105 28.072L31.4124 28.8798L31.4879 29.0846H32.7179C33.196 29.0846 33.5845 29.4691 33.5845 29.9422C33.5845 30.4152 33.196 30.7998 32.7179 30.7998H32.1281L33.5538 34.6147H25.2707L25.3378 35.0462C25.4077 35.4944 25.0778 35.9121 24.6054 35.9758Z" fill="white"/>
<path d="M12.4451 24.4538L12.7079 22.7385H7.03021H6.7255C6.24746 22.7385 5.85889 23.1231 5.85889 23.5961C5.85889 23.9613 6.08812 24.2712 6.4124 24.3957C6.51024 24.4316 6.61368 24.4538 6.7255 24.4538H12.4451Z" fill="white"/>
<path d="M23.7052 24.4538H29.7603H29.7715C30.2495 24.4538 30.6381 24.0692 30.6381 23.5961C30.6381 23.1231 30.2495 22.7385 29.7715 22.7385H29.1201H23.4424L23.7052 24.4538Z" fill="white"/>
<path d="M14.1948 24.4538H21.9551L21.6896 22.7385H14.4604L14.1948 24.4538Z" fill="white"/>
<path d="M11.4664 30.7967L11.7292 29.0815H4.66214H4.1254C3.64737 29.0815 3.25879 29.4661 3.25879 29.9391C3.25879 30.379 3.59425 30.7414 4.02476 30.7912C4.05831 30.794 4.09185 30.7967 4.1254 30.7967H11.4664Z" fill="white"/>
<path d="M13.2163 30.7967H22.9335L22.6679 29.0815H13.4819L13.2163 30.7967Z" fill="white"/>
<path d="M24.684 30.7967H32.1284H32.7182C33.1963 30.7967 33.5848 30.4122 33.5848 29.9391C33.5848 29.4661 33.1963 29.0815 32.7182 29.0815H31.4882H24.4185L24.684 30.7967Z" fill="white"/>
<path d="M25.3378 35.0466L25.2707 34.615L24.6837 30.8001L24.4209 29.0849L23.708 24.4539L23.4452 22.7387L22.8582 18.9238L22.7547 18.2543C22.6849 17.8061 22.246 17.4963 21.7735 17.5599C21.3011 17.6263 20.9712 18.0413 21.0411 18.4894L21.1082 18.921L21.6952 22.7359L21.958 24.4511L22.6709 29.0821L22.9337 30.7973L23.5207 34.6122L23.6242 35.2817C23.6829 35.6552 23.9932 35.9318 24.3706 35.9761C24.4488 35.9844 24.5271 35.9844 24.6082 35.9733C25.0778 35.9125 25.4077 35.4947 25.3378 35.0466Z" fill="white"/>
<path d="M13.4819 29.0821L14.1948 24.4511L14.4575 22.7359L15.0446 18.921L15.1117 18.4894C15.1816 18.0413 14.8517 17.6235 14.3793 17.5599C13.9068 17.4935 13.4651 17.8061 13.398 18.2543L13.2946 18.9238L12.7076 22.7387L12.4448 24.4539L11.7319 29.0849L11.4692 30.8001L10.8821 34.615L10.815 35.0466C10.7451 35.4947 11.075 35.9125 11.5474 35.9761C11.6285 35.9872 11.7068 35.9872 11.785 35.9789C12.1596 35.9318 12.4727 35.6552 12.5314 35.2845L12.6349 34.615L13.2219 30.8001L13.4819 29.0821Z" fill="white"/>
<path d="M14.5614 6.87874L16.5545 8.59394C16.7195 8.73503 16.9208 8.80419 17.122 8.80419C17.3652 8.80419 17.6057 8.70459 17.7762 8.50818C18.0893 8.15131 18.0529 7.60908 17.6895 7.29924L15.6963 5.58404C15.3357 5.2742 14.7878 5.31017 14.4747 5.66704C14.1616 6.02667 14.2007 6.5689 14.5614 6.87874Z" fill="white"/>
<path d="M26.1654 3.51457C26.1766 3.73036 26.2661 3.92124 26.4086 4.0651C26.5764 4.23661 26.8168 4.33897 27.0767 4.32514C27.5548 4.30024 27.921 3.89634 27.8958 3.42328L27.7561 0.814533C27.7309 0.341473 27.3228 -0.0236967 26.8447 0.00120126C26.3667 0.0260992 26.0005 0.429999 26.0256 0.903059L26.1654 3.51457Z" fill="white"/>
<path d="M42.3426 26.4815L40.2851 24.8437C39.9133 24.5477 39.3682 24.6058 39.0663 24.9738C38.9014 25.1757 38.8455 25.4275 38.8874 25.6626C38.9237 25.859 39.0272 26.0444 39.1977 26.1799L41.2552 27.8177C41.6269 28.1137 42.1721 28.0556 42.474 27.6876C42.7759 27.3197 42.7172 26.7803 42.3426 26.4815Z" fill="white"/>
<path d="M45.9298 14.6385C45.8711 14.1682 45.4378 13.8362 44.9625 13.8943L42.3431 14.218C41.8679 14.2761 41.5324 14.7048 41.5911 15.1751C41.6247 15.4324 41.7673 15.6482 41.9685 15.781C42.1363 15.8916 42.3431 15.947 42.5584 15.9193L45.1778 15.5956C45.653 15.5375 45.9885 15.1087 45.9298 14.6385Z" fill="white"/>
<path d="M36.5951 6.98115C36.9697 7.27716 37.5148 7.2163 37.8139 6.8456L39.4604 4.80397C39.7596 4.43327 39.6981 3.89381 39.3235 3.5978C38.9489 3.30179 38.4038 3.36265 38.1046 3.73336L36.4581 5.77499C36.3211 5.94374 36.2624 6.14569 36.2708 6.34487C36.282 6.58555 36.391 6.8207 36.5951 6.98115Z" fill="white"/>
</svg>
