<svg width="35" height="46" viewBox="0 0 35 46" fill="none" xmlns="http://www.w3.org/2000/svg">
<path d="M17.6134 16.5203C10.2052 16.5203 6.57668 20.0763 6.57668 27.4845C6.57668 31.4849 7.71059 34.8186 9.82722 37.0411C11.7927 39.1154 14.5141 40.2266 17.689 40.2266C20.8639 40.2266 23.5853 39.1154 25.5508 37.0411C27.6674 34.8186 28.8013 31.4849 28.8013 27.4845C28.6501 20.0763 25.0216 16.5203 17.6134 16.5203ZM17.6134 39.0413C11.6415 39.0413 7.86178 34.5964 7.86178 27.4845C7.86178 23.8545 8.76891 21.3357 10.6588 19.7059C12.2462 18.3724 14.5141 17.7797 17.6134 17.7797C20.7128 17.7797 22.9806 18.4465 24.5681 19.7059C26.4579 21.2616 27.365 23.7804 27.365 27.4845C27.365 34.5964 23.6609 39.0413 17.6134 39.0413ZM30.6912 0H4.38445C1.96544 0 0 1.92614 0 4.29677V10.0011C0 12.2976 1.88985 14.2238 4.23326 14.2979C4.08208 16.0018 3.85529 17.7057 3.40173 19.2614C2.79698 21.632 2.41901 24.1508 2.41901 26.7437C2.41901 32.3739 3.93089 37.1152 6.80346 40.4489C9.52485 43.6344 13.3801 45.4124 17.5378 45.4124C21.7711 45.4124 25.5508 43.6344 28.2722 40.4489C31.1447 37.0411 32.6566 32.2998 32.6566 26.7437C32.6566 24.0767 32.2786 21.4098 31.5983 18.965C31.1447 17.4834 30.918 15.9277 30.7668 14.2979C33.1102 14.1497 34.9244 12.2976 34.9244 10.0011V4.29677C35.0756 1.92614 33.1102 0 30.6912 0ZM31.5227 26.8178C31.5227 32.1517 30.0864 36.5966 27.4406 39.7081C24.946 42.5973 21.4687 44.2271 17.689 44.2271C13.8337 44.2271 10.432 42.5973 7.93737 39.7081C5.14039 36.5966 3.7797 32.1517 3.7797 26.8178C3.7797 24.3731 4.08208 21.9283 4.68683 19.6318C5.14039 17.9279 5.44277 16.1499 5.51836 14.2979H29.5573C29.7084 16.0018 30.0108 17.7057 30.4644 19.3355C31.1447 21.7061 31.5227 24.2249 31.5227 26.8178ZM33.7905 10.0011C33.7905 11.705 32.4298 13.0385 30.6912 13.0385H4.38445C2.64579 13.0385 1.2851 11.705 1.2851 10.0011V4.29677C1.2851 2.59288 2.64579 1.2594 4.38445 1.2594H30.6156C32.3542 1.2594 33.7149 2.59288 33.7149 4.29677V10.0011H33.7905ZM20.5616 21.8543H14.5141C13.3045 21.8543 12.5486 22.9655 12.5486 24.0026V28.1512C12.5486 30.8182 14.7408 32.9666 17.5378 32.9666H17.6134C20.4104 32.9666 22.6026 30.8923 22.6026 28.1512V24.0767C22.527 23.0396 21.6955 21.8543 20.5616 21.8543ZM21.2419 28.1512C21.2419 30.1515 19.6544 31.6331 17.6134 31.6331H17.5378C15.4968 31.6331 13.9093 30.0774 13.9093 28.1512V24.0767C13.9093 23.6322 14.2873 23.1877 14.5896 23.1877H20.6372C20.9395 23.1877 21.3175 23.6322 21.3175 24.0767V28.1512H21.2419ZM17.5378 4.81534C15.648 4.81534 14.1361 5.8525 14.1361 7.11189C14.1361 8.44537 15.648 9.40844 17.5378 9.40844C19.4277 9.40844 20.9395 8.37129 20.9395 7.11189C20.9395 5.8525 19.4277 4.81534 17.5378 4.81534ZM17.5378 8.22313C16.3283 8.22313 15.4968 7.63047 15.4968 7.18598C15.4968 6.6674 16.4039 6.14882 17.5378 6.14882C18.7473 6.14882 19.5788 6.74148 19.5788 7.18598C19.5788 7.63047 18.7473 8.22313 17.5378 8.22313Z" fill="white"/>
</svg>
