<svg width="35" height="31" viewBox="0 0 35 31" fill="none" xmlns="http://www.w3.org/2000/svg">
<path d="M33.5389 15.0784L28.3871 12.9165C28.335 12.8905 28.309 12.9165 28.257 12.8905C28.205 12.8644 28.1269 12.8644 28.0749 12.8644C27.9968 12.8644 27.9448 12.8905 27.8927 12.8905C27.8407 12.8905 27.8147 12.8905 27.7626 12.9165L22.6368 15.0784C22.3246 15.2086 22.1424 15.4951 22.1424 15.8337V24.7415C22.1424 25.0801 22.3506 25.3666 22.6368 25.4969L27.2943 27.4503V28.8047H10.4077V24.7415L18.7079 21.2513C19.0201 21.1211 19.2023 20.8346 19.2023 20.496V5.25893C19.2023 4.92033 18.9941 4.63382 18.7079 4.50359L9.91336 0.805022C9.86133 0.778976 9.83531 0.805022 9.78327 0.778976C9.73123 0.778976 9.67919 0.75293 9.60113 0.75293C9.52308 0.75293 9.47104 0.75293 9.419 0.778976C9.36696 0.778976 9.34094 0.778976 9.2889 0.805022L0.494367 4.50359C0.208155 4.63382 0 4.92033 0 5.25893V20.496C0 20.8346 0.208155 21.1211 0.494367 21.2513L8.79453 24.7415V28.8308H1.92543C1.4831 28.8308 1.11883 29.1954 1.11883 29.6382C1.11883 30.081 1.4831 30.4457 1.92543 30.4457H31.4574C31.8997 30.4457 32.264 30.081 32.264 29.6382C32.264 29.1954 31.8997 28.8308 31.4574 28.8308H28.9075V27.4764L33.5649 25.5229C33.8772 25.3927 34.0593 25.1062 34.0593 24.7676V15.8337C34.0333 15.4951 33.8511 15.2086 33.5389 15.0784ZM17.5891 19.949L10.4077 22.9704V17.8914L14.9871 19.6365C15.0912 19.6625 15.1693 19.6885 15.2733 19.6885C15.6116 19.6885 15.8978 19.4802 16.0279 19.1676C16.184 18.7509 15.9759 18.2821 15.5596 18.1258L10.4077 16.1463V12.3696L14.9871 14.1147C15.0912 14.1407 15.1693 14.1667 15.2733 14.1667C15.6116 14.1667 15.8978 13.9584 16.0279 13.6458C16.184 13.2291 15.9759 12.7602 15.5596 12.604L10.4077 10.6245V6.84775L15.0132 8.5668C15.1172 8.59285 15.1953 8.6189 15.2994 8.6189C15.6376 8.6189 15.9238 8.41053 16.0539 8.09797C16.21 7.68123 16.0019 7.2124 15.5856 7.05612L10.4077 5.10265V2.75849L17.5891 5.77986V19.949ZM1.6132 5.8059L8.79453 2.78454V5.1287L3.64271 7.05612C3.2264 7.2124 3.01824 7.68123 3.17436 8.09797C3.30445 8.43657 3.61669 8.6189 3.92892 8.6189C4.033 8.6189 4.11105 8.59285 4.21513 8.5668L8.79453 6.8217V10.5984L3.64271 12.5779C3.2264 12.7342 3.01824 13.203 3.17436 13.6198C3.30445 13.9584 3.61669 14.1407 3.92892 14.1407C4.033 14.1407 4.11105 14.1147 4.21513 14.0886L8.79453 12.3435V16.1202L3.64271 18.0997C3.2264 18.256 3.01824 18.7248 3.17436 19.1416C3.30445 19.4802 3.61669 19.6625 3.92892 19.6625C4.033 19.6625 4.11105 19.6365 4.21513 19.6104L8.79453 17.8653V22.9443L1.6132 19.949V5.8059ZM23.7556 16.3807L27.2683 14.896V18.7509L25.7071 19.35C25.2908 19.5062 25.0826 19.9751 25.2387 20.3918C25.3688 20.7044 25.6811 20.9127 25.9933 20.9127C26.0974 20.9127 26.1754 20.8867 26.2795 20.8606L27.2683 20.4699V25.6792L23.7556 24.1946V16.3807ZM32.4201 24.1946L28.9075 25.6792V20.4699L29.8962 20.8606C30.0003 20.8867 30.0783 20.9127 30.1824 20.9127C30.5207 20.9127 30.8069 20.7044 30.937 20.3918C31.0931 19.9751 30.8849 19.5062 30.4686 19.35L28.9075 18.7509V14.896L32.4201 16.3807V24.1946Z" fill="white"/>
</svg>
