<svg width="12" height="10" viewBox="0 0 12 10" fill="none" xmlns="http://www.w3.org/2000/svg">
<path d="M12 1.19205C11.6108 1.39073 11.0919 1.5894 10.573 1.5894C11.0919 1.25828 11.4811 0.794702 11.6757 0.198676C11.2216 0.463576 10.6378 0.728477 10.1189 0.794702C9.66486 0.331126 9.01621 0 8.3027 0C6.94054 0 5.83784 1.12583 5.83784 2.51656C5.83784 2.71523 5.83784 2.91391 5.9027 3.11258C3.82703 2.98013 2.01081 1.98676 0.778376 0.463576C0.583782 0.860927 0.454052 1.25828 0.454052 1.72185C0.454052 2.58278 0.908104 3.37748 1.55675 3.84106C1.16756 3.84106 0.778376 3.70861 0.454052 3.50993C0.454052 4.76821 1.29729 5.76159 2.46486 6.02649C2.27027 6.09272 2.01081 6.09272 1.81621 6.09272C1.68648 6.09272 1.49189 6.09272 1.36216 6.02649C1.68649 7.01987 2.59459 7.74834 3.6973 7.81457C2.85405 8.47682 1.75135 8.87417 0.58378 8.87417C0.389185 8.87417 0.194595 8.87417 0 8.87417C1.1027 9.60265 2.4 10 3.82702 10C8.36756 10 10.8973 6.15894 10.8973 2.78146V2.45033C11.2865 2.18543 11.6757 1.72185 12 1.19205Z" fill="white"/>
</svg>
