<svg width="12" height="12" viewBox="0 0 12 12" fill="none" xmlns="http://www.w3.org/2000/svg">
<path d="M5.34145 0.653962C6.22353 0.555728 7.0566 0.653962 7.84066 0.899548H7.98768V0.997782C9.75182 1.68542 11.0749 3.30628 11.32 5.27097C11.663 8.11975 9.55581 10.7721 6.76257 11.1159C6.51755 11.165 6.22353 11.165 5.97851 11.165V11.3615L5.43946 11.8035C5.97851 11.8526 6.51755 11.8526 7.0566 11.7544C10.1929 11.3124 12.4961 8.07064 11.908 4.92715C11.32 1.58719 8.18369 -0.524847 4.85141 0.113675C2.45021 0.604845 0.735062 2.47129 0.245021 4.63244L1.1271 3.94481C1.81315 2.27483 3.33228 0.948665 5.34145 0.653962Z" fill="white"/>
<path d="M0.83307 8.70916C0.980083 8.95474 0.980083 9.15121 0.882075 9.3968C0.58805 10.2318 0.294025 11.1159 0 12C0.147012 11.9509 0.196017 11.9509 0.294025 11.9018C1.1761 11.6071 2.05817 11.3615 2.89124 11.0668C2.98925 11.0177 3.18527 11.0177 3.28328 11.0668C3.96934 11.4106 4.7044 11.6071 5.43946 11.7053L5.97851 11.3124V11.1159C5.04743 11.1159 4.21436 10.8703 3.38129 10.4283C3.23427 10.3791 3.08726 10.33 2.94025 10.3791C2.30319 10.5756 1.66614 10.7721 0.980083 10.9685C1.2251 10.33 1.42112 9.74061 1.61714 9.15121C1.66614 8.95474 1.66614 8.80739 1.56813 8.61092C0.637054 7.18653 0.539046 5.41832 1.1271 3.94481L0.245021 4.63244C-0.0490041 5.9586 0.0980083 7.43211 0.83307 8.70916Z" fill="white"/>
<path d="M7.30159 8.56182C7.84064 8.70917 8.28168 8.56182 8.72271 8.218C9.11475 7.87418 9.06574 7.43212 8.62471 7.18654C8.5757 7.13742 8.47769 7.13742 8.42869 7.0883C8.23267 6.99007 7.98765 6.7936 7.79163 6.7936C7.59562 6.84272 7.44861 7.13742 7.25259 7.28477L7.20359 7.33389C7.05657 7.53036 6.86056 7.57947 6.61554 7.48124C6.37051 7.38301 6.1745 7.28477 5.97848 7.13742V8.02153C6.37051 8.26711 6.81155 8.41446 7.30159 8.56182Z" fill="white"/>
<path d="M4.65537 5.86037C4.45936 5.56567 4.41035 5.32008 4.70438 5.0745C4.9494 4.82891 5.04741 4.58332 4.85139 4.28862C4.70438 4.04304 4.65537 3.79745 4.55737 3.55187C4.45936 3.45363 4.31234 3.3554 4.16533 3.20805C3.96932 3.30628 3.7733 3.40452 3.67529 3.50275C3.18525 3.99392 3.08724 4.73068 3.47927 5.51655C4.11633 6.59712 4.90039 7.48123 5.92948 8.07063V7.18653C5.43944 6.84271 4.9984 6.40066 4.65537 5.86037Z" fill="white"/>
</svg>
