<svg width="14" height="11" viewBox="0 0 14 11" fill="none" xmlns="http://www.w3.org/2000/svg">
<path fill-rule="evenodd" clip-rule="evenodd" d="M11.774 0.768C12.6131 0.81525 13.0252 0.9395 13.405 1.615C13.8005 2.28962 14 3.45162 14 5.49825V5.50087V5.50525C14 7.54225 13.8005 8.713 13.4059 9.38062C13.0261 10.0561 12.614 10.1786 11.7749 10.2355C10.9357 10.2836 8.82788 10.3125 7.00175 10.3125C5.17212 10.3125 3.06337 10.2836 2.22513 10.2346C1.38775 10.1778 0.975625 10.0552 0.592375 9.37975C0.20125 8.71212 0 7.54137 0 5.50437V5.50262V5.5V5.49737C0 3.45162 0.20125 2.28962 0.592375 1.615C0.975625 0.938625 1.38862 0.81525 2.226 0.767125C3.06337 0.711125 5.17212 0.6875 7.00175 0.6875C8.82788 0.6875 10.9358 0.711125 11.774 0.768ZM9.625 5.5L5.25 2.875V8.125L9.625 5.5Z" fill="white"/>
</svg>
